<svg width="33" height="20" viewBox="0 0 33 20" fill="none" xmlns="http://www.w3.org/2000/svg">
<g clip-path="url(#clip0_2654_2105)">
<path d="M9.37961 7.29667C9.37961 7.70327 9.42303 8.03294 9.49901 8.2747C9.58586 8.51645 9.69441 8.78019 9.84638 9.0659C9.90066 9.15382 9.92237 9.24173 9.92237 9.31865C9.92237 9.42854 9.85724 9.53843 9.71612 9.64832L9.03224 10.1099C8.93454 10.1758 8.83684 10.2088 8.75 10.2088C8.64145 10.2088 8.53289 10.1538 8.42434 10.0549C8.27237 9.89008 8.14211 9.71426 8.03355 9.53843C7.925 9.35162 7.81645 9.14283 7.69704 8.89008C6.85033 9.90107 5.78651 10.4066 4.50559 10.4066C3.59375 10.4066 2.86645 10.1428 2.33454 9.61535C1.80263 9.08788 1.53125 8.38459 1.53125 7.50547C1.53125 6.5714 1.85691 5.81316 2.51908 5.24173C3.18125 4.6703 4.06053 4.38459 5.17862 4.38459C5.5477 4.38459 5.92763 4.41755 6.32928 4.4725C6.73092 4.52744 7.14342 4.61536 7.57763 4.71426V3.91206C7.57763 3.07689 7.40395 2.49448 7.06743 2.15382C6.72007 1.81316 6.13388 1.64832 5.29803 1.64832C4.91809 1.64832 4.5273 1.69228 4.12566 1.79118C3.72401 1.89008 3.33322 2.01096 2.95329 2.16481C2.77961 2.24173 2.64934 2.28568 2.57336 2.30766C2.49737 2.32964 2.44309 2.34063 2.39967 2.34063C2.2477 2.34063 2.17171 2.23074 2.17171 1.99997V1.46151C2.17171 1.28568 2.19342 1.15382 2.2477 1.07689C2.30197 0.99997 2.39967 0.923047 2.55164 0.846124C2.93158 0.648322 3.3875 0.483487 3.91941 0.351619C4.45132 0.208762 5.01579 0.142828 5.61283 0.142828C6.90461 0.142828 7.84901 0.439531 8.45691 1.03294C9.05395 1.62634 9.35789 2.52744 9.35789 3.73623V7.29667H9.37961ZM4.97237 8.967C5.33059 8.967 5.69967 8.90107 6.09046 8.7692C6.48125 8.63733 6.82862 8.39557 7.12171 8.0659C7.29539 7.85711 7.42566 7.62634 7.49079 7.36261C7.55592 7.09887 7.59934 6.78019 7.59934 6.40656V5.94503C7.28454 5.8681 6.94803 5.80217 6.60066 5.75821C6.25329 5.71426 5.91678 5.69228 5.58026 5.69228C4.85296 5.69228 4.32105 5.83514 3.96283 6.13184C3.60461 6.42854 3.43092 6.84612 3.43092 7.39557C3.43092 7.91206 3.56118 8.29667 3.83257 8.56041C4.09309 8.83514 4.47303 8.967 4.97237 8.967ZM13.6891 10.1538C13.4938 10.1538 13.3635 10.1208 13.2766 10.0439C13.1898 9.97799 13.1138 9.82415 13.0487 9.61535L10.4977 1.12085C10.4326 0.901069 10.4 0.758212 10.4 0.681289C10.4 0.505465 10.4868 0.406564 10.6605 0.406564H11.7243C11.9306 0.406564 12.0717 0.439531 12.1477 0.516454C12.2345 0.582388 12.2997 0.736234 12.3648 0.945025L14.1885 8.21975L15.8819 0.945025C15.9362 0.725245 16.0013 0.582388 16.0882 0.516454C16.175 0.45052 16.327 0.406564 16.5224 0.406564H17.3908C17.597 0.406564 17.7382 0.439531 17.825 0.516454C17.9118 0.582388 17.9878 0.736234 18.0313 0.945025L19.7464 8.30766L21.6243 0.945025C21.6895 0.725245 21.7655 0.582388 21.8414 0.516454C21.9283 0.45052 22.0694 0.406564 22.2648 0.406564H23.2743C23.448 0.406564 23.5457 0.494476 23.5457 0.681289C23.5457 0.736234 23.5349 0.791179 23.524 0.857113C23.5132 0.923047 23.4914 1.01096 23.448 1.13184L20.8319 9.62634C20.7668 9.84612 20.6908 9.98898 20.6039 10.0549C20.5171 10.1208 20.376 10.1648 20.1914 10.1648H19.2579C19.0516 10.1648 18.9105 10.1318 18.8237 10.0549C18.7368 9.97799 18.6609 9.83513 18.6174 9.61535L16.9349 2.52744L15.2632 9.60437C15.2089 9.82415 15.1438 9.967 15.0569 10.0439C14.9701 10.1208 14.8181 10.1538 14.6227 10.1538H13.6891ZM27.6382 10.4505C27.0737 10.4505 26.5092 10.3846 25.9664 10.2527C25.4237 10.1208 25.0003 9.97799 24.7181 9.81316C24.5444 9.71426 24.425 9.60437 24.3816 9.50546C24.3382 9.40656 24.3164 9.29667 24.3164 9.19777V8.63733C24.3164 8.40656 24.4033 8.29667 24.5661 8.29667C24.6313 8.29667 24.6964 8.30766 24.7615 8.32964C24.8266 8.35162 24.9243 8.39557 25.0329 8.43953C25.402 8.60437 25.8036 8.73623 26.227 8.82415C26.6612 8.91206 27.0845 8.95601 27.5188 8.95601C28.2026 8.95601 28.7345 8.83513 29.1036 8.59338C29.4727 8.35162 29.6681 7.99997 29.6681 7.54942C29.6681 7.24173 29.5704 6.98898 29.375 6.78019C29.1796 6.5714 28.8105 6.38459 28.2786 6.20876L26.7046 5.71426C25.9122 5.46151 25.326 5.08788 24.9678 4.59338C24.6095 4.10986 24.425 3.5714 24.425 2.99997C24.425 2.53843 24.5227 2.13184 24.7181 1.78019C24.9135 1.42854 25.174 1.12085 25.4997 0.879091C25.8253 0.626344 26.1944 0.439531 26.6286 0.307663C27.0628 0.175795 27.5187 0.12085 27.9964 0.12085C28.2352 0.12085 28.4849 0.131839 28.7237 0.164806C28.9734 0.197773 29.2013 0.241729 29.4293 0.285685C29.6464 0.34063 29.8526 0.395575 30.048 0.461509C30.2434 0.527443 30.3954 0.593377 30.5039 0.659311C30.6559 0.747223 30.7645 0.835135 30.8296 0.934036C30.8947 1.02195 30.9273 1.14283 30.9273 1.29667V1.81316C30.9273 2.04393 30.8405 2.16481 30.6776 2.16481C30.5908 2.16481 30.4497 2.12085 30.2651 2.03294C29.6464 1.74722 28.9516 1.60437 28.1809 1.60437C27.5622 1.60437 27.0737 1.70327 26.7372 1.91206C26.4007 2.12085 26.227 2.43953 26.227 2.89008C26.227 3.19777 26.3355 3.46151 26.5526 3.6703C26.7697 3.87909 27.1714 4.08788 27.7467 4.2747L29.2882 4.7692C30.0697 5.02195 30.6342 5.3736 30.9707 5.82415C31.3072 6.2747 31.4701 6.79118 31.4701 7.36261C31.4701 7.83514 31.3724 8.26371 31.1878 8.63733C30.9924 9.01096 30.7319 9.34063 30.3954 9.60437C30.0589 9.87909 29.6572 10.0769 29.1905 10.2198C28.702 10.3736 28.1918 10.4505 27.6382 10.4505Z" fill="#D5D9DD"/>
<path fill-rule="evenodd" clip-rule="evenodd" d="M29.6897 15.7912C26.1183 18.4616 20.9295 19.8791 16.468 19.8791C10.2154 19.8791 4.5815 17.5385 0.326235 13.6484C-0.0102786 13.3407 0.293669 12.9231 0.695314 13.1649C5.29795 15.8682 10.9752 17.5055 16.8479 17.5055C20.8101 17.5055 25.1631 16.6703 29.1687 14.9561C29.7657 14.6813 30.2759 15.3517 29.6897 15.7912Z" fill="#D5D9DD"/>
<path fill-rule="evenodd" clip-rule="evenodd" d="M31.1769 14.0769C30.721 13.4835 28.1592 13.7912 26.9977 13.9341C26.6503 13.978 26.596 13.6703 26.9108 13.4396C28.9516 11.989 32.3059 12.4066 32.6967 12.8901C33.0875 13.3846 32.5881 16.7802 30.6776 18.4066C30.3845 18.6594 30.1023 18.5275 30.2325 18.1978C30.6667 17.1099 31.6329 14.6594 31.1769 14.0769Z" fill="#D5D9DD"/>
</g>
<defs>
<clipPath id="clip0_2654_2105">
<rect width="33" height="20" fill="white"/>
</clipPath>
</defs>
</svg>
