<svg width="47" height="42" viewBox="0 0 47 42" fill="none" xmlns="http://www.w3.org/2000/svg">
<g clip-path="url(#clip0_2552_2646)">
<path d="M21.7217 28.3687C21.8726 28.63 22.0896 28.847 22.351 28.9979C22.6123 29.1488 22.9088 29.2282 23.2106 29.2282C23.5124 29.2282 23.8088 29.1488 24.0702 28.9979C24.3316 28.847 24.5486 28.63 24.6995 28.3687" stroke="#0A0A0A" stroke-width="1.7193" stroke-linecap="round" stroke-linejoin="round"/>
<path d="M15.6982 23.4908C15.5859 23.6139 15.5118 23.767 15.4849 23.9314C15.458 24.0959 15.4795 24.2646 15.5467 24.417C15.6139 24.5695 15.724 24.6991 15.8635 24.7902C16.003 24.8812 16.166 24.9298 16.3327 24.9299H30.087C30.2536 24.93 30.4167 24.8816 30.5563 24.7907C30.6959 24.6998 30.8061 24.5703 30.8735 24.418C30.9409 24.2656 30.9626 24.097 30.9359 23.9325C30.9092 23.7681 30.8353 23.6149 30.7232 23.4917C29.5798 22.3131 28.3677 21.0606 28.3677 17.1931C28.3677 15.8251 27.8243 14.5132 26.857 13.5459C25.8897 12.5786 24.5778 12.0352 23.2098 12.0352C21.8419 12.0352 20.53 12.5786 19.5627 13.5459C18.5954 14.5132 18.052 15.8251 18.052 17.1931C18.052 21.0606 16.839 22.3131 15.6982 23.4908Z" stroke="#0A0A0A" stroke-width="1.7193" stroke-linecap="round" stroke-linejoin="round"/>
</g>
<path d="M30.9473 10.3156C30.9473 7.46698 33.2565 5.15771 36.1052 5.15771C38.9538 5.15771 41.2631 7.46698 41.2631 10.3156C41.2631 13.1642 38.9538 15.4735 36.1052 15.4735C33.2565 15.4735 30.9473 13.1642 30.9473 10.3156Z" fill="#FB2C36"/>
<defs>
<clipPath id="clip0_2552_2646">
<rect width="20.6316" height="20.6316" fill="white" transform="translate(12.8945 10.3159)"/>
</clipPath>
</defs>
</svg>
