<svg width="31" height="31" viewBox="0 0 31 31" fill="none" xmlns="http://www.w3.org/2000/svg">
<path d="M17.1146 17.4684C17.1133 17.2469 17.292 17.0664 17.5135 17.0654L26.4834 17.0241C26.7044 17.0231 26.8829 16.8434 26.8823 16.6224L26.8749 13.5555C26.8744 13.3336 26.6937 13.1544 26.4719 13.1557L20.792 13.1886C20.4352 13.1907 20.2538 12.7605 20.5044 12.5065L24.4932 8.46281C24.649 8.30487 24.6468 8.05042 24.4884 7.89517L22.2973 5.74838C22.1396 5.59387 21.8866 5.59602 21.7316 5.7532L17.7429 9.79678C17.4921 10.0511 17.059 9.87489 17.0569 9.51769L17.024 3.83793C17.0228 3.61718 16.8432 3.43904 16.6224 3.43953L13.5547 3.44642C13.3328 3.44692 13.1536 3.6276 13.1549 3.84946L13.1877 9.52924C13.1898 9.88603 12.7596 10.0674 12.5056 9.81684L8.46199 5.82811C8.30403 5.6723 8.04955 5.67449 7.8943 5.83299L5.7477 8.02462C5.59323 8.18233 5.59541 8.43527 5.75257 8.5903L9.79619 12.579C10.0505 12.8299 9.8743 13.2629 9.5171 13.265L3.83741 13.2979C3.61663 13.2992 3.43848 13.4788 3.43901 13.6996L3.44644 16.767C3.44698 16.9889 3.62765 17.1681 3.84948 17.1668L9.52946 17.1339C9.88624 17.1318 10.0676 17.562 9.81709 17.816L5.82838 21.8604C5.67262 22.0183 5.6748 22.2727 5.83325 22.428L8.02432 24.5748C8.18202 24.7293 8.435 24.7272 8.59005 24.57L12.5788 20.5264C12.8296 20.2721 13.2627 20.4482 13.2648 20.8054L13.298 26.4843C13.2993 26.7051 13.4788 26.8832 13.6996 26.8827L16.7666 26.8761C16.9885 26.8756 17.1678 26.6949 17.1665 26.473L17.1146 17.4684Z" fill="#6A7FBC"/>
</svg>
