<svg width="83" height="22" viewBox="0 0 83 22" fill="none" xmlns="http://www.w3.org/2000/svg">
<g clip-path="url(#clip0_2654_2097)">
<path d="M25.8457 10.5766C25.8457 14.1736 28.2091 16.6816 31.4841 16.6816C34.7591 16.6816 37.1225 14.1736 37.1225 10.5766C37.1225 6.97956 34.7591 4.47156 31.4841 4.47156C28.2091 4.47156 25.8457 6.97956 25.8457 10.5766ZM34.9616 10.5766C34.9616 13.1506 33.5267 14.8171 31.4841 14.8171C29.4414 14.8171 28.0065 13.1506 28.0065 10.5766C28.0065 8.00256 29.4414 6.33606 31.4841 6.33606C33.5267 6.33606 34.9616 8.00256 34.9616 10.5766Z" fill="#D5D9DD"/>
<path d="M43.2077 16.6815C45.6892 16.6815 47.1073 14.6355 47.1073 12.177C47.1073 9.71849 45.6892 7.67249 43.2077 7.67249C42.0597 7.67249 41.2157 8.11799 40.6586 8.76149V7.83749H38.6328V19.47H40.6586V15.5925C41.2157 16.236 42.0597 16.6815 43.2077 16.6815ZM40.6079 11.9295C40.6079 10.296 41.5533 9.40499 42.8025 9.40499C44.2712 9.40499 45.0646 10.527 45.0646 12.177C45.0646 13.827 44.2712 14.949 42.8025 14.949C41.5533 14.949 40.6079 14.0415 40.6079 12.441V11.9295Z" fill="#D5D9DD"/>
<path d="M52.5899 16.6815C54.3624 16.6815 55.7636 15.774 56.3882 14.256L54.6494 13.6125C54.3793 14.5035 53.5859 14.9985 52.5899 14.9985C51.29 14.9985 50.3784 14.091 50.2265 12.606H56.4389V11.946C56.4389 9.56999 55.0715 7.67249 52.5055 7.67249C49.9395 7.67249 48.2852 9.63599 48.2852 12.177C48.2852 14.85 50.0577 16.6815 52.5899 16.6815ZM52.4886 9.33899C53.7716 9.33899 54.3793 10.164 54.3962 11.121H50.3278C50.6317 9.94949 51.442 9.33899 52.4886 9.33899Z" fill="#D5D9DD"/>
<path d="M57.957 16.5H59.9828V11.418C59.9828 10.1805 60.9113 9.52049 61.8229 9.52049C62.937 9.52049 63.3759 10.296 63.3759 11.3685V16.5H65.4017V10.791C65.4017 8.92649 64.2875 7.67249 62.4306 7.67249C61.2827 7.67249 60.4892 8.18399 59.9828 8.76149V7.83749H57.957V16.5Z" fill="#D5D9DD"/>
<path d="M71.3359 4.65295L66.7441 16.5H68.8881L69.9178 13.794H75.1511L76.1977 16.5H78.3754L73.7837 4.65295H71.3359ZM72.5176 6.99595L74.442 11.946H70.6269L72.5176 6.99595Z" fill="#D5D9DD"/>
<path d="M81.8522 4.68738H79.6914V16.5344H81.8522V4.68738Z" fill="#D5D9DD"/>
<path d="M20.8955 9.00417C21.4061 7.5061 21.2303 5.86504 20.4137 4.50242C19.1855 2.41242 16.7166 1.33717 14.3054 1.84317C13.2328 0.662042 11.6916 -0.00964503 10.0759 -2.00293e-05C7.61126 -0.00552003 5.42442 1.54548 4.66617 3.8376C3.08284 4.15454 1.71615 5.12323 0.916396 6.49617C-0.320866 8.58067 -0.0388071 11.2083 1.61416 12.9958C1.1035 14.4939 1.27935 16.1349 2.09598 17.4975C3.3241 19.5875 5.793 20.6628 8.20422 20.1568C9.27618 21.3379 10.818 22.0096 12.4337 21.9993C14.8998 22.0055 17.0873 20.4531 17.8456 18.1589C19.4289 17.842 20.7956 16.8733 21.5954 15.5004C22.8312 13.4159 22.5484 10.7903 20.8962 9.00279L20.8955 9.00417ZM12.4351 20.5617C11.4483 20.5631 10.4923 20.2255 9.7348 19.6075C9.76926 19.5896 9.82905 19.5573 9.86774 19.5339L14.3497 17.0039C14.579 16.8767 14.7197 16.6382 14.7183 16.3804V10.2045L16.6125 11.2736C16.6329 11.2832 16.6463 11.3025 16.6491 11.3245V16.4388C16.6463 18.713 14.7619 20.5569 12.4351 20.5617ZM3.37263 16.7784C2.87815 15.9438 2.70019 14.9655 2.86971 14.016C2.90277 14.0353 2.96115 14.0704 3.00265 14.0937L7.48465 16.6237C7.71185 16.7537 7.9932 16.7537 8.2211 16.6237L13.6928 13.5355V15.6736C13.6942 15.6956 13.6836 15.7169 13.666 15.7307L9.13551 18.2875C7.11748 19.4232 4.54026 18.7481 3.37334 16.7784H3.37263ZM2.19305 7.21598C2.68542 6.37998 3.46267 5.7406 4.38833 5.40854C4.38833 5.44635 4.38622 5.51304 4.38622 5.55979V10.6205C4.38481 10.8776 4.52549 11.1162 4.75409 11.2434L10.2258 14.3309L8.33153 15.4C8.31254 15.4124 8.28863 15.4144 8.26752 15.4055L3.73629 12.8466C1.72248 11.7067 1.03175 9.18842 2.19235 7.21667L2.19305 7.21598ZM17.7563 10.7559L12.2846 7.66767L14.1788 6.59929C14.1978 6.58692 14.2217 6.58485 14.2428 6.59379L18.7741 9.1506C20.7914 10.2898 21.4828 12.8122 20.3173 14.784C19.8242 15.6186 19.0477 16.258 18.1227 16.5907V11.3788C18.1248 11.1217 17.9849 10.8838 17.757 10.7559H17.7563ZM19.6413 7.98254C19.6083 7.9626 19.5499 7.92823 19.5084 7.90485L15.0264 5.37485C14.7992 5.24492 14.5178 5.24492 14.2899 5.37485L8.81828 8.4631V6.32498C8.81687 6.30298 8.82742 6.28167 8.84501 6.26792L13.3755 3.71317C15.3936 2.57535 17.9736 3.25254 19.137 5.22567C19.6287 6.05892 19.8066 7.03448 19.6399 7.98254H19.6413ZM7.78852 11.7934L5.89358 10.7243C5.87318 10.7147 5.85982 10.6954 5.85701 10.6734V5.5591C5.85841 3.28211 7.74842 1.43685 10.0781 1.43823C11.0635 1.43823 12.0173 1.77648 12.7748 2.39248C12.7404 2.41035 12.6813 2.44267 12.6419 2.46604L8.15991 4.99604C7.9306 5.12323 7.78992 5.3611 7.79133 5.61892L7.78852 11.792V11.7934ZM8.81757 9.62498L11.2548 8.24929L13.6921 9.62429V12.375L11.2548 13.75L8.81757 12.375V9.62498Z" fill="#D5D9DD"/>
</g>
<defs>
<clipPath id="clip0_2654_2097">
<rect width="83" height="22" fill="white"/>
</clipPath>
</defs>
</svg>
