<svg width="68" height="12" viewBox="0 0 68 12" fill="none" xmlns="http://www.w3.org/2000/svg">
<path d="M0.000329683 11.6814V8.03832C0.000329683 8.03832 -0.167811 0.428745 7.09026 0V2.33627C7.09026 2.33627 3.12367 2.2002 2.42818 6.89329C2.42818 6.89329 2.38232 7.33487 2.38232 8.04602V11.6814H0.000329683Z" fill="#D5D9DD"/>
<path d="M2.38454 0.937277V0H0V4.44654C0.0917131 4.17697 0.193616 3.90227 0.318448 3.62499C0.728609 2.69819 1.3757 1.7768 2.38454 0.937277Z" fill="#D5D9DD"/>
<path d="M67.7886 9.11694C67.7886 9.9914 67.4595 10.6743 66.8011 11.1655C66.1428 11.6568 65.3617 11.9025 64.4578 11.9025C63.5637 11.9025 62.8071 11.6666 62.1881 11.195C61.5691 10.7234 61.2154 10.0553 61.127 9.19063H63.5587C63.598 9.43626 63.7012 9.62295 63.8683 9.75068C64.0353 9.87841 64.2416 9.94227 64.4873 9.94227C64.6936 9.94227 64.8852 9.88823 65.062 9.78015C65.2487 9.66225 65.3421 9.50504 65.3421 9.30853C65.3421 9.22993 65.3273 9.15624 65.2979 9.08746C65.2782 9.01868 65.2438 8.95482 65.1947 8.89587C65.1456 8.83691 65.0964 8.78779 65.0473 8.74848C65.008 8.70918 64.9441 8.66988 64.8557 8.63058C64.7673 8.58145 64.6985 8.54706 64.6494 8.52741C64.6101 8.50776 64.5364 8.47828 64.4283 8.43898C64.33 8.39968 64.2662 8.37512 64.2367 8.36529C63.7651 8.20808 63.4114 8.08527 63.1756 7.99684C61.8786 7.52522 61.2301 6.81287 61.2301 5.8598C61.2301 5.04429 61.5445 4.3909 62.1734 3.89963C62.812 3.40836 63.5538 3.16272 64.3988 3.16272C65.2536 3.16272 65.9709 3.38379 66.5506 3.82594C67.1303 4.26808 67.4595 4.90674 67.5381 5.7419H65.1357C65.1259 5.32923 64.8704 5.1229 64.3694 5.1229C64.1925 5.1229 64.0304 5.17202 63.883 5.27028C63.7454 5.36853 63.6767 5.50117 63.6767 5.66821C63.6767 5.86472 63.7749 6.03175 63.9714 6.16931C64.1778 6.30686 64.4332 6.41494 64.7378 6.49354C65.0424 6.56232 65.3715 6.66058 65.7253 6.78831C66.0888 6.91604 66.4229 7.06342 66.7275 7.23045C67.032 7.38766 67.2826 7.62838 67.4791 7.95262C67.6854 8.27686 67.7886 8.66497 67.7886 9.11694Z" fill="#D5D9DD"/>
<path d="M60.6843 3.44287L57.604 7.03898L60.5958 11.6225H57.8251L55.5112 7.68746H55.4817V11.6225H53.0352V0.716309H55.4817V6.40524H55.5112L57.7808 3.44287H60.6843Z" fill="#D5D9DD"/>
<path d="M51.8164 8.51267C51.5806 9.51487 51.0648 10.3304 50.2689 10.9592C49.4731 11.5782 48.5593 11.8877 47.5276 11.8877C46.3093 11.8877 45.2727 11.4652 44.4179 10.6202C43.5729 9.77524 43.1504 8.73866 43.1504 7.51048C43.1504 6.30195 43.568 5.27519 44.4031 4.4302C45.2383 3.58521 46.2601 3.16272 47.4687 3.16272C48.5298 3.16272 49.4632 3.47713 50.2689 4.10596C51.0746 4.73479 51.5855 5.56504 51.8017 6.59671H49.3257C48.972 5.83033 48.3628 5.44714 47.4981 5.44714C46.9283 5.44714 46.4714 5.64856 46.1275 6.0514C45.7836 6.45424 45.6117 6.94552 45.6117 7.52522C45.6117 8.11474 45.7885 8.61093 46.1422 9.01377C46.5058 9.40679 46.9774 9.6033 47.5571 9.6033C48.353 9.6033 48.9425 9.23976 49.3257 8.51267H51.8164Z" fill="#D5D9DD"/>
<path d="M41.7646 11.6224H39.3181V10.7381H39.2886C39.0823 11.1312 38.7531 11.4259 38.3011 11.6224C37.859 11.8091 37.3923 11.9025 36.901 11.9025C35.6728 11.9025 34.6805 11.4849 33.9239 10.6497C33.1673 9.81454 32.7891 8.77305 32.7891 7.52522C32.7891 6.30686 33.1723 5.27519 33.9386 4.4302C34.705 3.58521 35.6925 3.16272 36.901 3.16272C37.3923 3.16272 37.8541 3.26097 38.2864 3.45748C38.7285 3.64417 39.0626 3.9291 39.2886 4.3123H39.3181V3.44274H41.7646V11.6224ZM39.3181 7.52522C39.3181 6.92586 39.1216 6.42968 38.7285 6.03666C38.3454 5.64364 37.8541 5.44713 37.2547 5.44713C36.6652 5.44713 36.1788 5.65347 35.7956 6.06614C35.4223 6.46898 35.2356 6.96517 35.2356 7.55469C35.2356 8.12457 35.4321 8.61093 35.8251 9.01377C36.2181 9.41661 36.6996 9.61804 37.2695 9.61804C37.859 9.61804 38.3454 9.41661 38.7285 9.01377C39.1216 8.61093 39.3181 8.11474 39.3181 7.52522Z" fill="#D5D9DD"/>
<path d="M32.2972 5.62399C31.6683 5.64364 31.1869 5.75664 30.8528 5.96297C30.5286 6.15948 30.3665 6.54758 30.3665 7.12729V11.6224H27.9199V3.44274H30.2191V4.3123H30.2486C30.6416 3.54591 31.3244 3.16272 32.2972 3.16272V5.62399Z" fill="#D5D9DD"/>
<path d="M26.8771 5.29988H25.698V11.6225H23.2515V5.29988H22.043V3.44287H23.2515V0.716309H25.698V3.44287H26.8771V5.29988Z" fill="#D5D9DD"/>
<path d="M20.9934 11.6225H18.5469V0.716309H20.9934V11.6225Z" fill="#D5D9DD"/>
<path d="M16.7083 2.57332H14.2617V0.716309H16.7083V2.57332ZM16.7083 11.6225H14.2617V3.44287H16.7083V11.6225Z" fill="#D5D9DD"/>
<path d="M12.4736 11.6224H10.0271V10.7381H9.99758C9.79124 11.1312 9.46209 11.4259 9.01012 11.6224C8.56798 11.8091 8.10127 11.9025 7.60999 11.9025C6.38181 11.9025 5.38944 11.4849 4.63289 10.6497C3.87633 9.81454 3.49805 8.77305 3.49805 7.52522C3.49805 6.30686 3.88124 5.27519 4.64762 4.4302C5.41401 3.58521 6.40147 3.16272 7.60999 3.16272C8.10127 3.16272 8.56306 3.26097 8.99538 3.45748C9.43753 3.64417 9.77159 3.9291 9.99758 4.3123H10.0271V3.44274H12.4736V11.6224ZM10.0271 7.52522C10.0271 6.92586 9.83054 6.42968 9.43753 6.03666C9.05433 5.64364 8.56306 5.44713 7.96371 5.44713C7.37418 5.44713 6.88782 5.65347 6.50463 6.06614C6.13127 6.46898 5.94458 6.96517 5.94458 7.55469C5.94458 8.12457 6.14109 8.61093 6.53411 9.01377C6.92713 9.41661 7.40857 9.61804 7.97845 9.61804C8.56798 9.61804 9.05433 9.41661 9.43753 9.01377C9.83054 8.61093 10.0271 8.11474 10.0271 7.52522Z" fill="#D5D9DD"/>
</svg>
