<svg width="53" height="26" viewBox="0 0 53 26" fill="none" xmlns="http://www.w3.org/2000/svg">
<path d="M0 24.6782H0.496758C0.5145 24.8379 0.567724 24.9444 0.638689 24.9976C0.709655 25.0685 0.833844 25.0863 0.993517 25.0863C1.29512 25.0863 1.43705 24.9621 1.43705 24.7315C1.43705 24.625 1.40157 24.5363 1.34834 24.4831C1.29512 24.4299 1.18867 24.3944 1.06448 24.3589L0.798362 24.3234C0.301603 24.2347 0.0532241 23.9863 0.0532241 23.5605C0.0532241 23.3121 0.141931 23.0993 0.301603 22.9573C0.479017 22.8154 0.691913 22.7267 0.975775 22.7267C1.2419 22.7267 1.45479 22.7976 1.61446 22.9396C1.77414 23.0815 1.86284 23.2944 1.88059 23.5428H1.38383C1.38383 23.4009 1.3306 23.3121 1.25964 23.2589C1.18867 23.2057 1.08222 23.1702 0.958034 23.1702C0.816103 23.1702 0.727396 23.2057 0.656431 23.2589C0.585465 23.3121 0.549983 23.4009 0.549983 23.525C0.549983 23.6138 0.585465 23.7025 0.638689 23.7557C0.691913 23.8089 0.798362 23.8444 0.922551 23.8799L1.20641 23.9331C1.68543 24.0218 1.91607 24.2702 1.91607 24.7137C1.91607 24.9976 1.82736 25.2105 1.64995 25.3524C1.47253 25.4943 1.2419 25.5653 0.940293 25.5653C0.638689 25.5653 0.408052 25.4943 0.248379 25.3524C0.106448 25.175 0.0177414 24.9621 0 24.6782ZM4.34664 23.2234V25.5298H3.81439V23.2234H3.10474V22.7622H5.03855V23.2234H4.34664ZM6.54657 24.9798L6.38689 25.5121H5.83691L6.81269 22.7622H7.23848L8.21425 25.5121H7.66427L7.5046 24.9798H6.54657ZM7.02558 23.4896L6.6885 24.554H7.36267L7.02558 23.4896ZM9.98839 24.4121V25.5298H9.47389V22.7799H10.5206C10.7868 22.7799 10.9997 22.8509 11.1593 22.9928C11.319 23.1347 11.4077 23.3476 11.4077 23.596C11.4077 23.7734 11.3722 23.9331 11.2835 24.0573C11.1948 24.1815 11.0706 24.2702 10.9287 24.3411L11.5319 25.5476H10.9287L10.4142 24.4299H9.98839V24.4121ZM10.4852 23.9686C10.6093 23.9686 10.698 23.9331 10.769 23.8621C10.84 23.7912 10.8755 23.7025 10.8755 23.5783C10.8755 23.4718 10.84 23.3831 10.769 23.3121C10.698 23.2412 10.6093 23.2057 10.4852 23.2057H9.98839V23.9508H10.4852V23.9686ZM13.3415 22.7622V25.0685H14.5479V25.5298H12.827V22.7799H13.3415V22.7622ZM16.4285 22.7622V25.5298H15.914V22.7799H16.4285V22.7622ZM19.9945 25.5298H19.48L18.4688 23.8089V25.5298H17.9188V22.7799H18.4333L19.4445 24.5008V22.7799H19.959V25.5298H19.9945ZM21.9816 24.7492V25.5121H21.4671V22.7622H21.9816V24.0395L22.9396 22.7622H23.5605L22.6735 23.8621L23.6315 25.5121H23.0283L22.3541 24.2879L21.9816 24.7492Z" fill="#D5D9DD"/>
<path d="M0.781757 19.3558L0.0898438 20.03H6.21062C22.7101 3.45957 46.4658 0.5145 52.5156 0.0177414V0C19.4989 1.89833 4.24132 16.0205 0.781757 19.3558Z" fill="#D5D9DD"/>
<path d="M17.5988 20.0299H23.6486L15.2747 13.8559C14.2634 14.5478 13.2167 15.3284 12.2231 16.109L17.5988 20.0299ZM6.5459 7.36255H0.496094L7.59264 12.5608C8.62164 11.8689 9.81031 11.1237 10.9103 10.485L6.5459 7.36255Z" fill="#D5D9DD"/>
</svg>
