<svg width="42" height="42" viewBox="0 0 42 42" fill="none" xmlns="http://www.w3.org/2000/svg">
<rect width="42" height="42" rx="13" fill="#030213"/>
<path d="M22.6883 23.1158C22.6873 22.95 22.8211 22.8149 22.9869 22.8141L30.7068 22.7786C30.8722 22.7778 31.0058 22.6433 31.0054 22.4779L30.9989 19.784C30.9985 19.6179 30.8632 19.4838 30.6971 19.4847L25.7203 19.5136C25.4532 19.5151 25.3174 19.1931 25.505 19.0029L29.0001 15.4597C29.1167 15.3415 29.1151 15.151 28.9965 15.0348L27.072 13.1492C26.954 13.0335 26.7646 13.0352 26.6485 13.1528L23.1535 16.6959C22.9657 16.8863 22.6415 16.7544 22.64 16.487L22.6111 11.5102C22.6102 11.345 22.4757 11.2116 22.3105 11.212L19.616 11.218C19.4499 11.2184 19.3157 11.3537 19.3167 11.5198L19.3455 16.4965C19.3471 16.7636 19.025 16.8994 18.8348 16.7118L15.2917 13.2168C15.1735 13.1002 14.983 13.1018 14.8667 13.2205L12.9813 15.1454C12.8657 15.2635 12.8673 15.4528 12.985 15.5689L16.5281 19.0639C16.7185 19.2517 16.5866 19.5759 16.3192 19.5775L11.3425 19.6063C11.1772 19.6072 11.0438 19.7417 11.0442 19.907L11.0507 22.6012C11.0511 22.7673 11.1864 22.9014 11.3525 22.9005L16.3294 22.8717C16.5965 22.8701 16.7323 23.1921 16.5447 23.3823L13.0497 26.9261C12.9331 27.0443 12.9348 27.2348 13.0534 27.351L14.9778 29.2366C15.0959 29.3523 15.2853 29.3506 15.4014 29.233L18.8964 25.6899C19.0842 25.4995 19.4084 25.6314 19.4099 25.8988L19.439 30.8748C19.44 31.04 19.5744 31.1734 19.7397 31.173L22.4336 31.1672C22.5997 31.1668 22.7339 31.0315 22.7329 30.8654L22.6883 23.1158Z" fill="white"/>
</svg>
